<?xml version="1.0" encoding="UTF-8" standalone="no"?>
<svg width="31px" height="44px" viewBox="0 0 31 44" version="1.1" xmlns="http://www.w3.org/2000/svg" xmlns:xlink="http://www.w3.org/1999/xlink" xmlns:sketch="http://www.bohemiancoding.com/sketch/ns">
    <!-- Generator: Sketch 3.5.2 (25235) - http://www.bohemiancoding.com/sketch -->
    <title>ic_reg-plate</title>
    <desc>Created with Sketch.</desc>
    <defs></defs>
    <g id="Icons" stroke="none" stroke-width="1" fill="none" fill-rule="evenodd" sketch:type="MSPage">
        <g id="Desktop-Landscape" sketch:type="MSArtboardGroup" transform="translate(-269.000000, -101.000000)" fill="#003399">
            <g id="ic_reg-plate" sketch:type="MSLayerGroup" transform="translate(269.000000, 101.000000)">
                <path d="M19.8612174,32.2921739 C19.6833043,32.2309565 19.3006957,32.2003478 18.7095652,32.2003478 L17.6621739,32.2003478 L17.6621739,33.9182609 L18.8626087,33.9182609 C19.3303478,33.9182609 19.6268696,33.9048696 19.7521739,33.878087 C19.9444348,33.8436522 20.1022609,33.7575652 20.2227826,33.6217391 C20.3442609,33.4849565 20.4054783,33.3041739 20.4054783,33.0765217 C20.4054783,32.8842609 20.3586087,32.7206957 20.2648696,32.5848696 C20.172087,32.4509565 20.0362609,32.3533913 19.8612174,32.2921739 L19.8612174,32.2921739 Z M0,3.00664103 L0,40.993359 C0,42.6543167 1.34690584,44 3.00937248,44 L31,44 L31,0 L3.00937248,0 C1.34690584,0 0,1.34568333 0,3.00664103 Z M21.4452174,11.9364348 L21.7436522,11.0975652 L22.0765217,11.9230435 L22.9651304,11.9469565 L22.284087,12.5208696 L22.5346957,13.3769565 L21.78,12.9034783 L21.0482609,13.4056522 L21.2625217,12.5428696 L20.5594783,11.9986087 L21.4452174,11.9364348 L21.4452174,11.9364348 Z M18.7774783,9.262 L19.075913,8.42313043 L19.4087826,9.2486087 L20.2973913,9.27443478 L19.6163478,9.84643478 L19.8669565,10.7015652 L19.1132174,10.23 L18.3814783,10.7321739 L18.5957391,9.86747826 L17.8917391,9.32321739 L18.7774783,9.262 L18.7774783,9.262 Z M18.7774783,21.9033913 L19.075913,21.0635652 L19.4087826,21.8890435 L20.2973913,21.9129565 L19.6163478,22.4868696 L19.8669565,23.3410435 L19.1132174,22.8704348 L18.3814783,23.3726087 L18.5957391,22.507913 L17.8926957,21.9646087 L18.7774783,21.9033913 L18.7774783,21.9033913 Z M15.1417391,8.28921739 L15.4411304,7.45034783 L15.774,8.27678261 L16.6616522,8.30165217 L15.9815652,8.8746087 L16.2321739,9.72973913 L15.4784348,9.25817391 L14.7438261,9.76034783 L14.958087,8.89565217 L14.2550435,8.3513913 L15.1417391,8.28921739 L15.1417391,8.28921739 Z M11.5050435,9.262 L11.8034783,8.42313043 L12.1373043,9.2486087 L13.025913,9.27443478 L12.3448696,9.8473913 L12.5954783,10.7025217 L11.8407826,10.2309565 L11.1090435,10.734087 L11.3233043,9.86843478 L10.6193043,9.32513043 L11.5050435,9.262 L11.5050435,9.262 Z M11.5050435,21.9033913 L11.8034783,21.0635652 L12.1373043,21.8890435 L13.025913,21.9129565 L12.3448696,22.4868696 L12.5954783,23.3410435 L11.8407826,22.8704348 L11.1090435,23.3726087 L11.3233043,22.507913 L10.6193043,21.9646087 L11.5050435,21.9033913 L11.5050435,21.9033913 Z M8.83826087,11.9364348 L9.13765217,11.0975652 L9.47052174,11.9230435 L10.3591304,11.9469565 L9.67808696,12.5208696 L9.92869565,13.3769565 L9.174,12.9034783 L8.44130435,13.4056522 L8.65556522,12.5428696 L7.95252174,11.9986087 L8.83826087,11.9364348 L8.83826087,11.9364348 Z M6.9826087,15.6458261 L7.86930435,15.5826957 L8.16773913,14.7438261 L8.5006087,15.5693043 L9.38921739,15.5951304 L8.70913043,16.168087 L8.95782609,17.0232174 L8.20504348,16.5516522 L7.47234783,17.0538261 L7.6866087,16.190087 L6.9826087,15.6458261 L6.9826087,15.6458261 Z M7.95347826,19.292087 L8.83921739,19.229913 L9.1386087,18.3910435 L9.47147826,19.2165217 L10.360087,19.2423478 L9.67904348,19.8143478 L9.92965217,20.6694783 L9.17591304,20.1969565 L8.44321739,20.6991304 L8.65747826,19.8353913 L7.95347826,19.292087 L7.95347826,19.292087 Z M15.1646957,34.1153043 C14.894,34.3773913 14.499913,34.6098261 13.9843478,34.8087826 C13.4678261,35.0096522 12.9465217,35.1091304 12.4175652,35.1091304 C11.7451304,35.1091304 11.1597391,34.9685217 10.6604348,34.6863478 C10.1611304,34.4051304 9.78617391,34.0014783 9.5346087,33.4763478 C9.28304348,32.9531304 9.15678261,32.3811304 9.15678261,31.7651304 C9.15678261,31.0965217 9.2973913,30.5015652 9.57765217,29.9812174 C9.85791304,29.459913 10.2692174,29.062 10.8096522,28.7836522 C11.2209565,28.5703478 11.7336522,28.4641739 12.3467826,28.4641739 C13.1445217,28.4641739 13.7672174,28.6325217 14.2158261,28.9653913 C14.6644348,29.2982609 14.9533043,29.7621739 15.0814783,30.3523478 L13.7930435,30.5933913 C13.7021739,30.2786957 13.531913,30.0290435 13.2822609,29.8463478 C13.0316522,29.6636522 12.7207826,29.5727826 12.3467826,29.5727826 C11.7805217,29.5727826 11.3290435,29.7526087 10.9952174,30.1122609 C10.6594783,30.4709565 10.494,31.0046957 10.494,31.7125217 C10.494,32.4748696 10.6633043,33.0468696 11.0028696,33.4285217 C11.3414783,33.8082609 11.7853043,33.9995652 12.3353043,33.9995652 C12.606,33.9995652 12.8786087,33.9469565 13.1531304,33.8407826 C13.4257391,33.7346087 13.660087,33.6035652 13.8561739,33.4524348 L13.8561739,32.6374783 L12.3697391,32.6374783 L12.3697391,31.5556522 L15.1666087,31.5556522 L15.1666087,34.1153043 L15.1646957,34.1153043 L15.1646957,34.1153043 Z M15.4784348,23.8441739 L14.7447826,24.3482609 L14.96,23.4835652 L14.2569565,22.9402609 L15.1436522,22.878087 L15.4430435,22.0392174 L15.775913,22.8646957 L16.6635652,22.8895652 L15.9834783,23.4615652 L16.234087,24.3176522 L15.4784348,23.8441739 L15.4784348,23.8441739 Z M21.5437391,33.99 C21.4069565,34.2645217 21.2213913,34.4873913 20.986087,34.6509565 C20.7507826,34.8164348 20.461913,34.9178261 20.1166087,34.9551304 C19.9004348,34.978087 19.3791304,34.9933913 18.5517391,35.000087 L16.3651304,35.000087 L16.3651304,28.5751304 L18.9333913,28.5751304 C19.4422609,28.5751304 19.8210435,28.5952174 20.0706957,28.6373043 C20.3203478,28.6803478 20.5441739,28.7673913 20.7412174,28.9022609 C20.9392174,29.0371304 21.1027826,29.2150435 21.2347826,29.4398261 C21.3667826,29.6646087 21.4327826,29.9142609 21.4327826,30.1906957 C21.4327826,30.4910435 21.3524348,30.7684348 21.1898261,31.02 C21.0281739,31.2706087 20.8081739,31.4590435 20.5307826,31.5853043 C20.9229565,31.6981739 21.2233043,31.8933043 21.4337391,32.1668696 C21.6441739,32.4413913 21.7493913,32.7646957 21.7493913,33.1358261 C21.7465217,33.4294783 21.6795652,33.7135652 21.5437391,33.99 L21.5437391,33.99 Z M22.5337391,20.6694783 L21.78,20.1969565 L21.0482609,20.6991304 L21.2625217,19.8363478 L20.5594783,19.292087 L21.4461739,19.229913 L21.7446087,18.3910435 L22.0774783,19.2165217 L22.966087,19.2423478 L22.2850435,19.8143478 L22.5337391,20.6694783 L22.5337391,20.6694783 Z M23.5036522,17.0232174 L22.7489565,16.5516522 L22.0162609,17.0538261 L22.2305217,16.190087 L21.5274783,15.6467826 L22.4141739,15.5836522 L22.7135652,14.7447826 L23.0464348,15.5702609 L23.934087,15.596087 L23.254,16.1690435 L23.5036522,17.0232174 L23.5036522,17.0232174 Z M19.4556522,31.1089565 C19.6775652,31.0831304 19.8526087,31.0046957 19.9788696,30.8793913 C20.106087,30.7512174 20.1692174,30.5847826 20.1692174,30.3781739 C20.1692174,30.1792174 20.1146957,30.0185217 20.0046957,29.8932174 C19.8956522,29.7698261 19.732087,29.6933043 19.515913,29.6674783 C19.3867826,29.6521739 19.0175652,29.6464348 18.4063478,29.6464348 L17.6612174,29.6464348 L17.6612174,31.1328696 L18.5125217,31.1328696 C19.0185217,31.1309565 19.3322609,31.1223478 19.4556522,31.1089565 L19.4556522,31.1089565 Z" id="gb" sketch:type="MSShapeGroup"></path>
            </g>
        </g>
    </g>
</svg>